<?xml version="1.0" encoding="iso-8859-1"?>
<!-- Generator: Adobe Illustrator 19.0.0, SVG Export Plug-In . SVG Version: 6.00 Build 0)  -->
<svg version="1.1" id="Layer_1" xmlns="http://www.w3.org/2000/svg" xmlns:xlink="http://www.w3.org/1999/xlink" x="0px" y="0px"
	 viewBox="0 0 512 512" style="enable-background:new 0 0 512 512;" xml:space="preserve">
<circle style="fill:#273B7A;" cx="256" cy="256" r="256"/>
<path style="fill:#121149;" d="M348.086,113.347l-107.744,29.251l-46.654,15.463l-64.109,33.697l134.868,134.868l-79.486,21.602
	l-38.679,54.994l108.763,108.763c0.319,0.002,0.634,0.012,0.953,0.012c141.384,0,256-114.616,256-256
	c0-6.349-0.24-12.641-0.695-18.875L365.716,91.536L348.086,113.347z"/>
<path style="fill:#FFEDB5;" d="M384.79,305.374c-2.708-3.763-7.63-5.244-11.969-3.615c-0.062,0.024-0.124,0.047-0.188,0.067
	l-73.463,24.457c0.016,0.59,0.003,1.184-0.034,1.783c-0.614,9.381-7.868,16.917-17.191,17.863l-44.273,4.598
	c-2.801,0.293-5.304-1.743-5.596-4.542c-0.293-2.801,1.741-5.37,4.542-5.596l44.273-4.598c4.37-0.476,7.783-3.984,8.071-8.389
	c0.157-2.405-0.633-4.727-2.222-6.537c-1.589-1.812-3.791-2.896-6.196-3.053l-58.782-3.832c-6.603-0.428-13.155,1.029-18.953,4.22
	l-77.524,42.691l20.995,42.334l19.473-16.989c8.271-7.215,19.227-10.323,30.058-8.523l65.093,10.818
	c11.928,1.586,23.886-1.389,33.68-8.376l88.626-61.037C387.174,315.656,387.875,309.662,384.79,305.374z"/>
<g>
	<path style="fill:#FEE187;" d="M280.891,335.791c4.37-0.476,7.783-3.984,8.071-8.389c0.157-2.405-0.633-4.727-2.222-6.537
		c-1.589-1.812-3.791-2.896-6.196-3.053l-24.545-1.6v22.164L280.891,335.791z"/>
	<path style="fill:#FEE187;" d="M384.79,305.374c-2.708-3.763-7.63-5.244-11.969-3.613c-0.062,0.024-0.124,0.047-0.188,0.067
		l-73.463,24.457c0.016,0.59,0.003,1.184-0.034,1.783c-0.614,9.382-7.868,16.917-17.191,17.863L256,348.625v39.091l4.906,0.815
		c11.928,1.586,23.886-1.389,33.68-8.376l88.626-61.037C387.174,315.656,387.875,309.662,384.79,305.374z"/>
</g>
<path style="fill:#FFEDB5;" d="M127.21,189.387c2.708,3.763,7.63,5.244,11.969,3.615c0.062-0.024,0.124-0.047,0.188-0.067
	l73.463-24.457c-0.016-0.59-0.003-1.184,0.034-1.783c0.614-9.382,7.868-16.917,17.191-17.863l44.273-4.598
	c2.801-0.293,5.304,1.743,5.596,4.542c0.293,2.801-1.741,5.37-4.542,5.596l-44.273,4.598c-4.37,0.476-7.783,3.984-8.071,8.389
	c-0.157,2.405,0.633,4.727,2.222,6.537c1.589,1.812,3.791,2.896,6.196,3.053l58.782,3.832c6.603,0.428,13.155-1.029,18.953-4.22
	l77.524-42.691l-20.995-42.334l-19.473,16.989c-8.271,7.215-19.227,10.323-30.058,8.523l-65.093-10.818
	c-11.928-1.586-23.886,1.389-33.68,8.376l-88.626,61.037C124.826,179.105,124.125,185.099,127.21,189.387z"/>
<path style="fill:#FEE187;" d="M365.718,91.536l-19.473,16.989c-8.271,7.215-19.227,10.323-30.058,8.521l-60.187-10v39.091
	l18.327-1.903c2.801-0.291,5.304,1.743,5.596,4.542c0.291,2.801-1.741,5.37-4.542,5.596L256,156.384v22.166l34.235,2.232
	c6.603,0.428,13.155-1.029,18.953-4.22l77.524-42.691L365.718,91.536z"/>
<path style="fill:#FF314F;" d="M253.316,286.972c1.284,1.896,4.084,1.896,5.368,0c10.264-15.143,46.447-33.945,46.447-58.292
	c0-16.791-10.999-24.566-24.566-24.566c-13.567,0-24.566,10.999-24.566,24.566c0-13.567-10.999-24.566-24.566-24.566
	c-13.567,0-24.566,7.775-24.566,24.566C206.869,253.026,243.052,271.829,253.316,286.972z"/>
<path style="fill:#A30F44;" d="M280.566,204.112c-13.564,0-24.559,10.993-24.566,24.555v59.725c1.021,0,2.041-0.474,2.684-1.422
	c10.264-15.143,46.447-33.945,46.447-58.292C305.131,211.889,294.133,204.112,280.566,204.112z"/>
<g>
</g>
<g>
</g>
<g>
</g>
<g>
</g>
<g>
</g>
<g>
</g>
<g>
</g>
<g>
</g>
<g>
</g>
<g>
</g>
<g>
</g>
<g>
</g>
<g>
</g>
<g>
</g>
<g>
</g>
</svg>
