<?xml version="1.0" encoding="iso-8859-1"?>
<!-- Generator: Adobe Illustrator 19.0.0, SVG Export Plug-In . SVG Version: 6.00 Build 0)  -->
<svg version="1.1" id="Capa_1" xmlns="http://www.w3.org/2000/svg" xmlns:xlink="http://www.w3.org/1999/xlink" x="0px" y="0px"
	 viewBox="0 0 512.001 512.001" style="enable-background:new 0 0 512.001 512.001;" xml:space="preserve">
<g>
	<g>
		<path d="M293.207,30c-16.479,0-28.696,7.529-37.207,17.007C247.489,37.529,235.272,30,218.793,30
			c-29.282,0-52.222,24.331-52.222,55.4c0,32.607,25.342,53.994,60.425,83.584c6.021,5.098,12.437,10.503,19.175,16.348
			c5.593,4.84,13.973,4.92,19.658,0c6.724-5.83,13.14-11.25,19.16-16.333c27.508-23.2,60.44-48.063,60.44-83.599
			C345.429,54.331,322.49,30,293.207,30z"/>
	</g>
</g>
<g>
	<g>
		<path d="M215.201,240.598l-57.1-56.099c-11.7-11.699-30.901-11.699-42.601,0c-11.256,11.256-11.892,30.409,0,42.301l30,30
			c6.232,6.228,5.75,15.552,0,21.299c-5.042,5.606-15.916,5.652-20.999,0L73.2,226.8C64.799,218.399,60,206.999,60,195V30
			c0-17.1-14.099-30-30-30C13.5,0,0,13.5,0,30v208.5c0,13.499,3.6,26.699,10.8,38.399l72.9,121.5c4.2,7.2,6.301,15,6.301,23.101V497
			c0,8.399,6.599,15,15,15h136V302.999C241.001,279.6,231.701,257.1,215.201,240.598z"/>
	</g>
</g>
<g>
	<g>
		<path d="M120,60c-16.5,0-30,13.5-30,30v78.076c10.984-13.76,27.954-22.353,46.802-22.353c4.51,0,8.904,0.608,13.198,1.564V90
			C150,72.901,135.901,60,120,60z"/>
	</g>
</g>
<g>
	<g>
		<path d="M482,0c-15.901,0-30,12.9-30,30v165c0,11.999-4.799,23.399-13.2,31.8l-51.301,51.299c-5.042,5.606-15.916,5.652-20.999,0
			c-5.75-5.747-6.232-15.071,0-21.299l30-30c5.7-5.7,8.699-13.5,8.699-21c0-7.8-2.999-15.601-8.699-21.301
			c-11.7-11.699-30.901-11.699-42.601,0l-57.1,56.1C280.3,257.1,271,279.6,271,302.999V512h136c8.401,0,15-6.601,15-15v-75.5
			c0-8.101,2.1-15.901,6.301-23.101l72.9-121.5c7.2-11.7,10.8-24.901,10.8-38.399V30C512,13.5,498.5,0,482,0z"/>
	</g>
</g>
<g>
	<g>
		<path d="M392,60c-15.901,0-30,12.9-30,30v57.286c4.294-0.956,8.688-1.564,13.198-1.564c18.848,0.001,35.818,8.594,46.802,22.354
			V90C422,73.5,408.5,60,392,60z"/>
	</g>
</g>
<g>
</g>
<g>
</g>
<g>
</g>
<g>
</g>
<g>
</g>
<g>
</g>
<g>
</g>
<g>
</g>
<g>
</g>
<g>
</g>
<g>
</g>
<g>
</g>
<g>
</g>
<g>
</g>
<g>
</g>
</svg>
