<?xml version="1.0" standalone="no"?>
<!DOCTYPE svg PUBLIC "-//W3C//DTD SVG 20010904//EN"
 "http://www.w3.org/TR/2001/REC-SVG-20010904/DTD/svg10.dtd">
<svg version="1.0" xmlns="http://www.w3.org/2000/svg"
 width="1280.000000pt" height="954.000000pt" viewBox="0 0 1280.000000 954.000000"
 preserveAspectRatio="xMidYMid meet" color="#fff">
<metadata>
Created by potrace 1.15, written by Peter Selinger 2001-2017
</metadata>
<g transform="translate(0.000000,954.000000) scale(0.100000,-0.100000)"
fill="#ffffff" stroke="none">
<path d="M7960 9520 c-58 -11 -110 -19 -117 -20 -7 0 -103 -75 -215 -167 -404
-334 -734 -594 -791 -624 -71 -37 -163 -65 -271 -80 -112 -15 -460 -13 -711 6
-376 27 -493 19 -719 -50 -172 -52 -313 -110 -505 -206 -199 -100 -355 -199
-451 -286 -162 -148 -863 -718 -2165 -1763 -860 -690 -778 -620 -824 -704
l-42 -76 -517 0 c-576 0 -562 2 -609 -69 -23 -34 -23 -37 -23 -370 0 -318 1
-338 20 -369 11 -18 34 -41 52 -52 33 -20 54 -20 1497 -20 l1465 0 -45 -37
c-79 -66 -524 -511 -787 -788 -141 -148 -275 -287 -297 -309 -22 -21 -112 -84
-200 -139 -504 -315 -941 -693 -1000 -865 -35 -105 -17 -239 80 -578 39 -136
70 -268 79 -333 11 -86 21 -122 50 -179 44 -87 115 -192 229 -339 l87 -112 0
-163 c0 -169 15 -291 48 -408 61 -209 156 -348 275 -400 40 -18 59 -19 164
-14 159 8 204 23 273 93 31 31 70 81 87 111 76 135 133 375 133 563 l0 100 58
66 c127 144 301 393 352 506 68 148 121 382 123 540 0 89 -4 117 -42 250 -70
249 -66 404 13 571 28 59 47 82 103 129 211 175 661 446 1778 1070 743 415
1101 625 1120 656 4 5 1318 9 3493 9 3462 0 3487 0 3520 20 18 11 41 34 52 52
19 31 20 51 20 369 0 333 0 336 -23 370 -12 19 -38 42 -57 51 -33 17 -273 18
-4572 18 -2496 0 -4538 2 -4538 5 0 25 191 447 306 677 275 550 524 904 733
1042 279 185 971 424 1866 646 343 86 377 97 587 202 l137 68 144 202 c478
674 747 1081 747 1131 0 22 -33 21 -170 -3z m-6002 -7224 c50 -26 196 -178
221 -229 34 -71 51 -143 52 -225 1 -71 -1 -79 -72 -238 -41 -90 -76 -163 -79
-163 -3 0 -21 22 -40 50 -42 61 -111 113 -165 127 -22 6 -95 13 -162 17 -110
6 -126 5 -169 -14 -26 -12 -48 -20 -49 -19 -2 2 -15 37 -31 78 -23 63 -28 91
-28 176 -1 97 0 103 38 180 64 129 197 242 322 273 49 13 124 6 162 -13z"/>
<path d="M6185 9378 c-86 -9 -187 -34 -277 -68 -85 -31 -173 -93 -278 -194
-141 -136 -236 -205 -544 -393 -195 -119 -180 -109 -172 -121 4 -6 27 -2 58
10 97 37 293 86 392 98 77 10 142 10 300 1 110 -7 213 -14 229 -17 18 -4 27
-1 27 8 0 29 51 119 88 156 22 22 66 58 99 80 129 87 181 170 190 299 5 79 -5
145 -22 148 -6 1 -46 -2 -90 -7z"/>
<path d="M11475 9080 c-267 -42 -498 -217 -619 -469 -74 -155 -71 -101 -71
-1286 0 -1166 -4 -1090 60 -1248 72 -176 257 -360 439 -436 198 -82 457 -79
652 9 185 83 353 258 428 444 56 140 56 150 56 1240 0 653 -4 1024 -11 1066
-50 312 -296 584 -597 661 -90 23 -252 32 -337 19z m231 -534 c58 -27 116 -83
148 -141 l21 -40 3 -1004 c3 -1153 9 -1065 -88 -1163 -84 -83 -181 -107 -297
-73 -61 18 -144 88 -176 149 l-22 41 -3 1015 -2 1015 30 62 c52 105 146 162
265 163 53 0 82 -6 121 -24z"/>
<path d="M8717 9044 c-4 -4 -7 -776 -7 -1716 l0 -1708 443 0 c466 1 529 5 651
49 238 84 454 328 513 580 17 70 18 152 18 1086 0 934 -1 1016 -18 1086 -66
281 -300 523 -582 601 -76 21 -104 22 -545 26 -256 2 -468 0 -473 -4z m912
-540 c67 -20 145 -90 177 -159 l24 -50 0 -970 0 -970 -24 -50 c-29 -62 -87
-121 -146 -149 -40 -18 -68 -21 -237 -24 l-193 -4 0 1196 0 1196 173 0 c129 0
187 -4 226 -16z"/>
<path d="M10506 4569 c-165 -39 -319 -198 -355 -367 -14 -70 -15 -1207 -1
-1283 58 -305 399 -474 680 -337 77 37 173 129 213 205 54 102 57 135 57 768
0 630 -3 662 -56 766 -34 67 -144 178 -207 208 -99 48 -230 64 -331 40z m195
-318 c83 -52 79 -21 79 -691 0 -417 -3 -598 -11 -613 -67 -130 -239 -140 -307
-18 l-22 40 2 603 3 603 23 33 c53 74 155 93 233 43z"/>
<path d="M6037 4554 c-4 -4 -7 -454 -7 -1001 l0 -993 150 0 150 0 0 632 c0
347 3 628 7 625 3 -4 97 -287 208 -630 l202 -622 162 -3 161 -2 0 1000 0 1000
-150 0 -150 0 -2 -661 -3 -660 -109 368 c-61 202 -149 499 -196 658 l-87 290
-164 3 c-91 1 -168 -1 -172 -4z"/>
<path d="M7665 4548 c-3 -7 -52 -290 -109 -628 -58 -338 -132 -775 -165 -971
-34 -196 -61 -363 -61 -373 0 -14 18 -16 155 -16 85 0 155 2 155 5 0 19 71
439 76 446 6 11 301 12 307 2 3 -5 19 -100 37 -213 17 -113 33 -213 36 -222 5
-16 21 -18 160 -18 111 0 154 3 154 12 0 6 -74 454 -165 994 -91 541 -165 986
-165 989 0 3 -92 5 -205 5 -155 0 -207 -3 -210 -12z m259 -826 c26 -191 51
-362 53 -379 l6 -33 -113 0 -113 0 6 33 c2 17 27 188 53 379 27 192 51 348 54
348 3 0 27 -156 54 -348z"/>
<path d="M8390 4405 l0 -155 160 0 160 0 0 -845 0 -845 150 0 150 0 0 845 0
844 158 3 157 3 0 150 0 150 -467 3 -468 2 0 -155z"/>
<path d="M9577 4553 c-4 -3 -7 -453 -7 -1000 l0 -993 150 0 150 0 0 1000 0
1000 -143 0 c-79 0 -147 -3 -150 -7z"/>
<path d="M11360 3560 l0 -1000 150 0 150 0 0 632 c0 347 3 629 6 625 3 -3 97
-286 208 -629 l202 -623 162 -3 162 -2 0 1000 0 1000 -150 0 -150 0 -1 -667 0
-668 -74 245 c-40 135 -128 430 -195 655 -66 226 -123 416 -125 423 -3 9 -47
12 -175 12 l-170 0 0 -1000z"/>
</g>
</svg>
