<svg height="512pt" viewBox="-27 0 512 512" width="512pt" xmlns="http://www.w3.org/2000/svg"><path d="m149.730469 197.90625h12.34375c4.140625 0 7.5-3.355469 7.5-7.5s-3.359375-7.5-7.5-7.5h-9.84375v-31.09375c0-4.144531-3.359375-7.5-7.5-7.5-4.144531 0-7.5 3.355469-7.5 7.5v33.59375c0 6.894531 5.605469 12.5 12.5 12.5zm0 0"/><path d="m189.304688 223.699219c2.941406-2.914063 2.964843-7.664063.050781-10.605469-2.914063-2.941406-7.664063-2.964844-10.605469-.050781-13.976562 13.839843-36.71875 13.839843-50.695312 0-2.941407-2.914063-7.691407-2.894531-10.605469.050781-2.914063 2.941406-2.890625 7.691406.050781 10.605469 9.898438 9.804687 22.898438 14.703125 35.902344 14.703125 13 0 26.003906-4.902344 35.902344-14.703125zm0 0"/><path d="m120.230469 127.15625c1.460937 1.449219 3.367187 2.171875 5.277343 2.171875 1.929688 0 3.859376-.742187 5.328126-2.222656 2.914062-2.945313 2.890624-7.691407-.054688-10.605469-13.898438-13.765625-36.511719-13.765625-50.414062 0-2.941407 2.914062-2.964844 7.660156-.050782 10.605469 2.914063 2.945312 7.664063 2.964843 10.605469.050781 8.082031-8 21.230469-8 29.308594 0zm0 0"/><path d="m107.167969 136.195312c-4.140625 0-7.5 3.359376-7.5 7.5v20.359376c0 4.140624 3.359375 7.5 7.5 7.5s7.5-3.359376 7.5-7.5v-20.359376c0-4.140624-3.359375-7.5-7.5-7.5zm0 0"/><path d="m199.636719 171.554688c4.144531 0 7.5-3.355469 7.5-7.5v-20.355469c0-4.144531-3.355469-7.5-7.5-7.5-4.140625 0-7.5 3.355469-7.5 7.5v20.355469c0 4.140624 3.359375 7.5 7.5 7.5zm0 0"/><path d="m424.136719 242.449219h5.449219c15.117187 0 27.414062-12.207031 27.414062-27.210938v-17.136719c0-10.457031-5.976562-19.550781-14.714844-24.101562v-50.425781c0-44.585938-36.296875-80.863281-80.90625-80.863281h-58.394531c-10.667969 0-20.851563 2.09375-30.183594 5.859374-3.824219-27.398437-27.585937-48.570312-56.253906-48.570312h-167.375c-8.667969 0-15.71875 7.015625-15.71875 15.636719v114.261719c-7.882813 5.109374-13.105469 13.941406-13.105469 23.960937v18.355469c0 15.769531 12.925782 28.601562 28.8125 28.601562h6.269532c6.132812 32.402344 28.277343 59.269532 57.953124 72.214844v1.5625h-41.863281c-39.4375 0-71.519531 31.964844-71.519531 71.257812v151.234376c0 8.222656 6.703125 14.914062 14.945312 14.914062h420.023438c6.710938 0 12.171875-5.460938 12.171875-12.171875v-65.828125c0-4.144531-3.359375-7.5-7.5-7.5-4.144531 0-7.5 3.355469-7.5 7.5v63h-11.140625v-44.117188c0-4.144531-3.355469-7.5-7.5-7.5s-7.5 3.355469-7.5 7.5v44.117188h-146v-44.117188c0-4.144531-3.355469-7.5-7.5-7.5s-7.5 3.355469-7.5 7.5v44.117188h-12.777344v-126.976562c0-25.734376 20.949219-46.667969 46.695313-46.667969h15.417969c.933593 19.90625 17.546874 35.816406 37.84375 35.816406 20.296874 0 36.914062-15.910156 37.847656-35.816406h2.992187c-4.675781 5.660156-4.371093 14.074219.921875 19.367187l5.5 5.5c1.625 1.625 3.566406 2.8125 5.691406 3.507813.6875 2.09375 1.855469 4.042969 3.476563 5.660156l5.5 5.5c1.625 1.625 3.566406 2.8125 5.691406 3.507813.6875 2.09375 1.855469 4.042968 3.476563 5.660156l5.5 5.5c2.722656 2.722656 6.34375 4.222656 10.195312 4.222656 3.851563 0 7.46875-1.5 10.191406-4.222656l2.976563-2.972656v23.414062c0 4.144531 3.355469 7.5 7.5 7.5 4.140625 0 7.5-3.355469 7.5-7.5v-27.976562c0-3.292969-.265625-6.523438-.765625-9.675782l5.402344-5.402344c2.722656-2.722656 4.222656-6.34375 4.222656-10.191406 0-3.851562-1.5-7.472656-4.222656-10.195312l-34.835938-34.835938c-2.722656-2.722656-6.34375-4.222656-10.191406-4.222656-3.851562 0-7.472656 1.5-10.195312 4.222656l-8.695313 8.695313c-.800781-.03125-1.605469-.0625-2.414063-.0625h-12.417968c26.117187-12.589844 45.472656-36.859375 51.109375-65.90625zm17.863281-27.210938c0 6.730469-5.566406 12.210938-12.414062 12.210938h-3.800782c.023438-.847657.039063-1.695313.039063-2.546875v-39.011719h3.761719c6.847656 0 12.414062 5.476563 12.414062 12.207031zm-392.839844-29.421875c-7.617187 0-13.8125-6.101562-13.8125-13.601562v-18.355469c0-7.5 6.195313-13.601563 13.8125-13.601563h4.554688v42.304688c0 1.089844.023437 2.171875.058594 3.253906zm19.554688-3.253906v-98.625h32.785156c4.140625 0 7.5-3.355469 7.5-7.5 0-4.140625-3.359375-7.5-7.5-7.5h-35.175781c-6.953125 0-12.609375 5.636719-12.609375 12.5625v43.757812h-4.554688c-.238281 0-.472656.011719-.707031.019532v-109.640625c0-.351563.320313-.636719.71875-.636719h167.375c23 0 41.71875 18.457031 41.800781 41.175781-5.59375 3.714844-10.710937 8.09375-15.214844 13.046875-.855468-.1875-1.742187-.285156-2.652343-.285156h-101.980469c-4.140625 0-7.5 3.359375-7.5 7.5 0 4.144531 3.359375 7.5 7.5 7.5h94.003906c-5.027344 8.894531-8.410156 18.828125-9.753906 29.390625-13.960938-10.484375-34.003906-9.433594-46.730469 3.171875-2.945312 2.914062-2.96875 7.664062-.054687 10.605469 2.917968 2.945312 7.664062 2.96875 10.609375.050781 8.078125-8 21.226562-8 29.308593.003906 1.460938 1.445313 3.367188 2.167969 5.273438 2.167969.308594 0 .617188-.023437.921875-.0625v44.734375c-8.738281 4.554688-14.71875 13.644531-14.71875 24.101562v17.136719c0 8.71875 4.15625 16.484375 10.597656 21.464844-15.542969 18.121094-38.707031 29.648437-64.554687 29.648437-46.699219 0-84.6875-37.585937-84.6875-83.789062zm59.667968 95.636719c7.996094 2.058593 16.382813 3.152343 25.019532 3.152343 8.640625 0 17.023437-1.105468 25.023437-3.160156v12.058594c0 13.621094-11.226562 24.703125-25.023437 24.703125s-25.019532-11.082031-25.019532-24.703125zm65.042969-5.171875c15.570313-6.792969 29.066407-17.417969 39.265625-30.667969.691406.054687 1.382813.089844 2.085938.089844h5.449218c2.476563 12.75 7.59375 24.578125 14.765626 34.902343-6.261719-1.789062-12.871094-2.757812-19.703126-2.757812h-41.863281zm45.148438-45.578125h-3.800781c-6.84375 0-12.414063-5.476563-12.414063-12.210938v-17.136719c0-6.734374 5.570313-12.207031 12.414063-12.207031h3.765624v39.011719c0 .847656.015626 1.695312.035157 2.542969zm-21.351563 142.574219v126.976562h-165.222656v-66c0-4.144531-3.359375-7.5-7.5-7.5s-7.5 3.355469-7.5 7.5v66h-22v-151.148438c0-31.019531 25.355469-56.253906 56.519531-56.253906h41.863281v.652344c0 21.894531 17.953126 39.703125 40.019532 39.703125 22.070312 0 40.023437-17.808594 40.023437-39.703125v-.652344h41.859375c16.71875 0 31.753906 7.269532 42.109375 18.796875-33.316406.816407-60.171875 28.136719-60.171875 61.628907zm114.957032-25.851563c-12.621094 0-22.886719-10.128906-22.886719-22.574219v-6.75c7.328125 1.832032 14.992187 2.808594 22.886719 2.808594 7.894531 0 15.5625-.976562 22.890624-2.808594v6.75c0 12.445313-10.269531 22.574219-22.890624 22.574219zm108.578124.578125-21.789062 21.789062-4.269531-4.269531 8.144531-8.148437c2.929688-2.925782 2.929688-7.675782 0-10.605469-2.929688-2.925781-7.679688-2.925781-10.609375.003906l-8.140625 8.140625-4.253906-4.253906 8.144531-8.144531c2.925781-2.929688 2.925781-7.675781 0-10.605469-2.929687-2.929688-7.679687-2.929688-10.609375 0l-8.144531 8.144531-4.269531-4.273437 21.789062-21.789063zm-108.578124-42.09375c-43.363282 0-78.640626-34.878906-78.640626-77.753906v-51.390625h44.480469c10.035157 0 19.855469-1.828125 29.183594-5.429688 3.863281-1.492187 5.785156-5.835937 4.292969-9.699219-1.492188-3.863281-5.835938-5.789062-9.699219-4.292968-7.597656 2.933594-15.597656 4.421875-23.777344 4.421875h-49.175781c-5.683594 0-10.304688 4.621093-10.304688 10.300781v2.078125h-1.460937v-47.316406c0-36.316407 29.566406-65.863281 65.90625-65.863281h58.394531c36.339844 0 65.90625 29.546874 65.90625 65.863281v47.316406h-1.460937v-40.367187c0-6.742188-5.507813-12.226563-12.277344-12.226563h-48.347656c-3.800781 0-7.277344 2.078125-9.082031 5.433594-2.183594 4.070312-4.792969 7.917969-7.761719 11.429687-2.671875 3.167969-2.269531 7.898438.894531 10.570313s7.898438 2.273437 10.566406-.894531c3.035156-3.59375 5.765625-7.464844 8.136719-11.539063h42.871094v91.605469c0 42.875-35.277344 77.753906-78.644531 77.753906zm0 0"/><path d="m329.078125 236.082031h11.207031c4.140625 0 7.5-3.355469 7.5-7.5s-3.359375-7.5-7.5-7.5h-8.707031v-16.4375c0-4.144531-3.359375-7.5-7.5-7.5-4.144531 0-7.5 3.355469-7.5 7.5v18.9375c0 6.894531 5.605469 12.5 12.5 12.5zm0 0"/><path d="m358.296875 253.011719c-14.402344 14.257812-37.832031 14.253906-52.230469.003906-2.945312-2.914063-7.695312-2.894531-10.605468.050781-2.914063 2.945313-2.890626 7.695313.050781 10.609375 10.109375 10.007813 23.386719 15.007813 36.667969 15.007813 13.277343 0 26.5625-5.003906 36.667968-15.007813 2.945313-2.914062 2.96875-7.664062.058594-10.605469-2.917969-2.945312-7.664062-2.96875-10.609375-.058593zm0 0"/><path d="m296.476562 211.730469v-19.011719c0-4.144531-3.355468-7.5-7.5-7.5-4.140624 0-7.5 3.355469-7.5 7.5v19.011719c0 4.140625 3.359376 7.5 7.5 7.5 4.144532 0 7.5-3.359375 7.5-7.5zm0 0"/><path d="m375.382812 185.21875c-4.144531 0-7.5 3.355469-7.5 7.5v19.011719c0 4.140625 3.355469 7.5 7.5 7.5 4.144532 0 7.5-3.359375 7.5-7.5v-19.011719c0-4.144531-3.359374-7.5-7.5-7.5zm0 0"/><path d="m390.113281 159.402344h-27.097656c-4.144531 0-7.5 3.359375-7.5 7.5 0 4.144531 3.355469 7.5 7.5 7.5h27.097656c4.144531 0 7.5-3.355469 7.5-7.5 0-4.140625-3.355469-7.5-7.5-7.5zm0 0"/><path d="m383.5 385.5c-16.265625 0-29.5 13.234375-29.5 29.5s13.234375 29.5 29.5 29.5 29.5-13.234375 29.5-29.5-13.234375-29.5-29.5-29.5zm0 44c-7.996094 0-14.5-6.503906-14.5-14.5s6.503906-14.5 14.5-14.5 14.5 6.503906 14.5 14.5-6.503906 14.5-14.5 14.5zm0 0"/></svg>